<?xml version="1.0" standalone="no"?>
<!DOCTYPE svg PUBLIC "-//W3C//DTD SVG 20010904//EN"
 "http://www.w3.org/TR/2001/REC-SVG-20010904/DTD/svg10.dtd">
<svg version="1.0" xmlns="http://www.w3.org/2000/svg"
 width="554.000000pt" height="554.000000pt" viewBox="0 0 554.000000 554.000000"
 preserveAspectRatio="xMidYMid meet">
<metadata>
Created by potrace 1.14, written by Peter Selinger 2001-2017
</metadata>
<g transform="translate(0.000000,554.000000) scale(0.100000,-0.100000)"
fill="#000000" stroke="none">
<path d="M2605 5224 c-429 -63 -754 -226 -1035 -520 -104 -109 -151 -170 -229
-298 -101 -166 -180 -374 -218 -576 -24 -128 -28 -417 -9 -566 19 -149 61
-317 111 -447 36 -94 39 -97 55 -80 10 10 163 191 341 403 178 212 369 439
424 505 56 66 146 174 202 240 138 166 220 226 377 274 84 26 242 29 331 6
147 -37 296 -139 374 -254 89 -131 121 -232 121 -382 0 -110 -17 -186 -64
-284 -40 -83 1 -33 -525 -657 -337 -398 -688 -815 -807 -958 -11 -13 -1 -31
58 -110 83 -110 229 -327 281 -418 70 -119 129 -256 192 -442 72 -214 93 -260
131 -285 32 -21 108 -25 149 -7 47 20 74 70 137 255 71 206 115 312 181 432
106 193 317 491 577 815 309 386 456 601 562 827 180 384 227 841 128 1248
-117 485 -473 915 -932 1129 -112 53 -287 110 -400 132 -80 15 -443 28 -513
18z"/>
</g>
</svg>
