<?xml version="1.0" standalone="no"?>
<!DOCTYPE svg PUBLIC "-//W3C//DTD SVG 20010904//EN"
 "http://www.w3.org/TR/2001/REC-SVG-20010904/DTD/svg10.dtd">
<svg version="1.0" xmlns="http://www.w3.org/2000/svg"
 width="96.000000pt" height="96.000000pt" viewBox="0 0 96.000000 96.000000"
 preserveAspectRatio="xMidYMid meet">
<metadata>
Created by potrace 1.14, written by Peter Selinger 2001-2017
</metadata>
<g transform="translate(0.000000,96.000000) scale(0.100000,-0.100000)"
fill="#000000" stroke="none">
<path d="M0 480 l0 -480 480 0 480 0 0 480 0 480 -480 0 -480 0 0 -480z m577
156 c36 -18 57 -57 50 -88 -10 -37 -79 -71 -146 -71 -34 -1 -60 -6 -66 -14 -8
-11 -17 -7 -42 17 -54 53 -54 123 0 152 57 30 150 32 204 4z m-267 -196 c0 -5
-4 -10 -10 -10 -5 0 -10 5 -10 10 0 6 5 10 10 10 6 0 10 -4 10 -10z m288 -70
l-3 -63 -34 -3 c-62 -7 -92 45 -50 87 14 14 28 19 45 15 21 -6 24 -3 24 21 0
19 3 24 11 16 5 -5 9 -38 7 -73z m-350 34 c19 -6 22 -13 22 -56 0 -27 -4 -47
-9 -44 -5 3 -7 15 -4 25 7 27 -14 61 -37 61 -17 0 -20 -7 -20 -39 0 -22 -4
-43 -10 -46 -6 -4 -10 11 -10 39 0 56 19 73 68 60z m62 -44 c0 -27 -4 -50 -10
-50 -11 0 -14 83 -3 93 12 12 13 8 13 -43z m84 44 c27 -10 18 -21 -14 -16 -18
3 -30 0 -30 -7 0 -6 10 -11 23 -11 46 0 67 -56 25 -64 -57 -11 -68 -4 -68 41
0 51 24 72 64 57z m83 -47 c2 -25 -1 -48 -6 -52 -7 -4 -11 7 -11 29 0 23 -7
42 -21 55 l-22 20 28 -3 c26 -3 29 -7 32 -49z m236 26 c18 -17 19 -17 28 0 6
9 15 17 21 17 6 0 4 -10 -5 -24 -14 -21 -14 -26 0 -45 20 -29 11 -37 -12 -11
l-18 20 -24 -22 c-13 -12 -23 -17 -23 -11 0 5 9 18 20 28 l20 18 -22 24 c-25
27 -14 31 15 6z m-55 -30 c-10 -2 -26 -2 -35 0 -10 3 -2 5 17 5 19 0 27 -2 18
-5z"/>
<path d="M483 622 c-33 -10 -65 -41 -61 -59 12 -61 160 -77 189 -20 12 22 12
22 -9 4 -39 -36 -115 -2 -83 37 18 21 60 20 84 -1 19 -17 20 -17 9 3 -18 35
-77 51 -129 36z"/>
<path d="M517 384 c-14 -14 -7 -53 12 -63 26 -14 54 8 49 40 -2 17 -10 25 -28
27 -14 2 -29 0 -33 -4z"/>
<path d="M361 350 c-8 -4 -10 -13 -7 -19 9 -13 43 -15 51 -2 8 14 -28 31 -44
21z"/>
</g>
</svg>
